#N canvas 385 511 1041 414 10;
#X obj 143 246 dac~;
#X obj 242 73 osc~;
#X obj 43 73 osc~;
#X obj 84 158 line;
#X obj 51 190 *~;
#X obj 43 48 r Knob1 @hv_param 0 2000 440;
#X obj 242 48 r Knob2 @hv_param 0 2000 440;
#X obj 294 183 line;
#X msg 334 135 1;
#X obj 238 213 *~;
#X obj 293 72 r Button2 @hv_param;
#X obj 97 75 r Button1 @hv_param;
#X obj 294 100 t b b;
#X msg 286 136 0 500;
#X obj 96 100 t b b;
#X msg 133 127 1;
#X msg 86 127 0 500;
#X connect 1 0 9 0;
#X connect 2 0 4 0;
#X connect 3 0 4 1;
#X connect 4 0 0 0;
#X connect 5 0 2 0;
#X connect 6 0 1 0;
#X connect 7 0 9 1;
#X connect 8 0 7 0;
#X connect 9 0 0 1;
#X connect 10 0 12 0;
#X connect 11 0 14 0;
#X connect 12 0 13 0;
#X connect 12 1 8 0;
#X connect 13 0 7 0;
#X connect 14 0 16 0;
#X connect 14 1 15 0;
#X connect 15 0 3 0;
#X connect 16 0 3 0;
