#N canvas 6330 1183 949 662 12;
#X obj 29 30 adc~;
#X obj 29 375 dac~;
#X obj 43 105 delwrite~ \$0-delay 1000;
#X obj 28 252 *~;
#X obj 269 207 + 1;
#X obj 260 166 * -1;
#X obj 31 307 +~;
#X obj 221 275 *~;
#X obj 96 249 line~;
#X obj 43 168 * 999;
#X obj 96 275 vd~ \$0-delay;
#X obj 96 374 s~ feedback;
#X obj 96 326 *~;
#X obj 43 77 +~;
#X obj 70 30 r~ feedback;
#X obj 96 187 t f 5;
#X obj 96 218 pack f f;
#X obj 324 184 s cvout1 @hv_param;
#X obj 143 324 r PadB2_press @hv_param;
#X obj 43 142 r Knob1 @hv_param;
#X obj 324 117 r Cv1 @hv_param;
#X obj 192 375 s led_Key_B2 @hv_param;
#X connect 0 0 3 0;
#X connect 0 0 13 0;
#X connect 3 0 6 0;
#X connect 4 0 3 1;
#X connect 5 0 4 0;
#X connect 6 0 1 0;
#X connect 6 0 1 1;
#X connect 7 0 6 1;
#X connect 8 0 10 0;
#X connect 9 0 15 0;
#X connect 10 0 7 0;
#X connect 10 0 12 0;
#X connect 12 0 11 0;
#X connect 13 0 2 0;
#X connect 14 0 13 1;
#X connect 15 0 16 0;
#X connect 15 1 16 1;
#X connect 16 0 8 0;
#X connect 18 0 12 1;
#X connect 18 0 21 0;
#X connect 19 0 9 0;
#X connect 20 0 5 0;
#X connect 20 0 7 1;
#X connect 20 0 17 0;
