#N canvas 5901 1083 949 766 12;
#X obj 29 30 adc~;
#X obj 29 375 dac~;
#X obj 43 105 delwrite~ \$0-delay 1000;
#X obj 28 252 *~;
#X obj 170 229 + 1;
#X obj 161 188 * -1;
#X obj 31 307 +~;
#X obj 125 305 *~;
#X obj 96 249 line~;
#X obj 43 168 * 999;
#X obj 96 275 vd~ \$0-delay;
#X obj 96 374 s~ feedback;
#X obj 96 341 *~;
#X obj 43 77 +~;
#X obj 70 30 r~ feedback;
#X obj 96 187 t f 5;
#X obj 96 218 pack f f;
#X obj 225 206 s cvout1 @hv_param;
#X obj 173 305 r PadB2_press @hv_param;
#X obj 225 139 r Cv1 @hv_param;
#X obj 175 334 s led_Key_B2 @hv_param;
#X obj 397 225 s led_knob_1 @hv_param;
#X obj 43 142 r knob1 @hv_param;
#X obj 397 189 r knob1 @hv_param;
#X obj 576 190 r knob2 @hv_param;
#X obj 576 224 s led_knob_2 @hv_param;
#X obj 397 255 r knob3 @hv_param;
#X obj 397 289 s led_knob_3 @hv_param;
#X obj 576 256 r knob4 @hv_param;
#X obj 576 290 s led_knob_4 @hv_param;
#X obj 398 322 r knob5 @hv_param;
#X obj 398 356 s led_knob_5 @hv_param;
#X obj 577 323 r knob6 @hv_param;
#X obj 577 357 s led_knob_6 @hv_param;
#X obj 398 388 r knob7 @hv_param;
#X obj 398 422 s led_knob_7 @hv_param;
#X obj 577 389 r knob8 @hv_param;
#X obj 577 423 s led_knob_8 @hv_param;
#X obj 35 456 r PadA1_press @hv_param;
#X obj 35 491 s led_Key_A1 @hv_param;
#X obj 215 457 r PadA2_press @hv_param;
#X obj 215 492 s led_Key_A2 @hv_param;
#X obj 36 526 r PadA3_press @hv_param;
#X obj 36 561 s led_Key_A3 @hv_param;
#X obj 216 527 r PadA4_press @hv_param;
#X obj 216 562 s led_Key_A4 @hv_param;
#X obj 36 594 r PadA5_press @hv_param;
#X obj 36 629 s led_Key_A5 @hv_param;
#X obj 216 595 r PadA6_press @hv_param;
#X obj 216 630 s led_Key_A6 @hv_param;
#X obj 37 664 r PadA7_press @hv_param;
#X obj 37 699 s led_Key_A7 @hv_param;
#X obj 217 665 r PadA8_press @hv_param;
#X obj 217 700 s led_Key_A8 @hv_param;
#X obj 392 458 r PadB1_press @hv_param;
#X obj 572 459 r PadB2_press @hv_param;
#X obj 392 493 s led_Key_B1 @hv_param;
#X obj 572 494 s led_Key_B2 @hv_param;
#X obj 573 529 r PadB4_press @hv_param;
#X obj 393 528 r PadB3_press @hv_param;
#X obj 393 563 s led_Key_B3 @hv_param;
#X obj 573 564 s led_Key_B4 @hv_param;
#X obj 393 596 r PadB5_press @hv_param;
#X obj 573 597 r PadB6_press @hv_param;
#X obj 393 631 s led_Key_B5 @hv_param;
#X obj 573 632 s led_Key_B6 @hv_param;
#X obj 394 666 r PadB7_press @hv_param;
#X obj 574 667 r PadB8_press @hv_param;
#X obj 394 701 s led_Key_B7 @hv_param;
#X obj 574 702 s led_Key_B8 @hv_param;
#X connect 0 0 3 0;
#X connect 0 0 13 0;
#X connect 3 0 6 0;
#X connect 4 0 3 1;
#X connect 5 0 4 0;
#X connect 6 0 1 0;
#X connect 6 0 1 1;
#X connect 7 0 6 1;
#X connect 8 0 10 0;
#X connect 9 0 15 0;
#X connect 10 0 7 0;
#X connect 10 0 12 0;
#X connect 12 0 11 0;
#X connect 13 0 2 0;
#X connect 14 0 13 1;
#X connect 15 0 16 0;
#X connect 15 1 16 1;
#X connect 16 0 8 0;
#X connect 18 0 12 1;
#X connect 18 0 20 0;
#X connect 19 0 5 0;
#X connect 19 0 7 1;
#X connect 19 0 17 0;
#X connect 22 0 9 0;
#X connect 23 0 21 0;
#X connect 24 0 25 0;
#X connect 26 0 27 0;
#X connect 28 0 29 0;
#X connect 30 0 31 0;
#X connect 32 0 33 0;
#X connect 34 0 35 0;
#X connect 36 0 37 0;
#X connect 38 0 39 0;
#X connect 40 0 41 0;
#X connect 42 0 43 0;
#X connect 44 0 45 0;
#X connect 46 0 47 0;
#X connect 48 0 49 0;
#X connect 50 0 51 0;
#X connect 52 0 53 0;
#X connect 54 0 56 0;
#X connect 55 0 57 0;
#X connect 58 0 61 0;
#X connect 59 0 60 0;
#X connect 62 0 64 0;
#X connect 63 0 65 0;
#X connect 66 0 68 0;
#X connect 67 0 69 0;
