#N canvas 2339 930 1122 792 10;
#X obj 213 350 *~;
#X obj 361 385 *~;
#X obj 311 259 osc~;
#X text 108 255 ctrls set volume per channel;
#X obj 128 321 * 0.8;
#X obj 360 331 * 0.8;
#X obj 142 513 t b b;
#X msg 174 543 1;
#X msg 130 543 0 500;
#X obj 227 381 *~;
#X obj 336 445 dac~ 1 2;
#X obj 310 182 mtof;
#X obj 308 113 * 100;
#X obj 309 149 + 24;
#X obj 754 433 s cvout2 @hv_param;
#X obj 306 78 r Ctrl1 @hv_param;
#X obj 631 285 r Ctrl2 @hv_param;
#X obj 125 291 r Ctrl3 @hv_param;
#X obj 389 286 r Ctrl4 @hv_param;
#X obj 48 471 r Gate1_Trig @hv_param;
#X obj 555 356 s cvout1 @hv_param;
#X obj 690 645 s GateOut2 @hv_param;
#X obj 687 575 r Gate2 @hv_param;
#X obj 543 570 r Gate1 @hv_param;
#X text 24 427 gate in 1 triggers env for out1;
#X obj 542 644 s GateOut1 @hv_param;
#X obj 154 569 line~;
#X obj 895 283 r cv_5 @hv_param;
#X obj 897 366 * 5;
#X obj 896 328 < -0.5;
#X connect 0 0 9 0;
#X connect 1 0 10 1;
#X connect 2 0 1 0;
#X connect 2 0 0 0;
#X connect 4 0 0 1;
#X connect 5 0 1 1;
#X connect 6 0 8 0;
#X connect 6 1 7 0;
#X connect 7 0 26 0;
#X connect 8 0 26 0;
#X connect 9 0 10 0;
#X connect 11 0 2 0;
#X connect 12 0 13 0;
#X connect 13 0 11 0;
#X connect 15 0 12 0;
#X connect 16 0 20 0;
#X connect 17 0 4 0;
#X connect 18 0 5 0;
#X connect 19 0 6 0;
#X connect 22 0 21 0;
#X connect 23 0 25 0;
#X connect 26 0 9 1;
#X connect 27 0 29 0;
#X connect 28 0 14 0;
#X connect 29 0 28 0;
