#N canvas 5863 1036 933 575 12;
#X obj 21 24 adc~;
#X obj 42 448 dac~;
#X obj 43 105 delwrite~ \$0-delay 1000;
#X obj 22 252 *~;
#X obj 256 132 r Knob3 @hv_param;
#X obj 254 184 + 1;
#X obj 254 158 * -1;
#X obj 42 309 +~;
#X obj 221 275 *~;
#X obj 96 249 line~;
#X obj 43 142 r Knob4 @hv_param;
#X obj 43 168 * 999;
#X obj 96 275 vd~ \$0-delay;
#X obj 96 374 s~ feedback;
#X obj 96 326 *~;
#X obj 143 324 r Knob5 @hv_param;
#X obj 43 77 +~;
#X obj 83 24 r~ feedback;
#X obj 96 187 t f 5;
#X obj 96 218 pack f f;
#X obj 426 223 tgl 15 0 empty empty empty 17 7 0 10 -262144 -1 -1 0
1;
#X obj 553 346 s relay @hv_param;
#X obj 466 169 r footswitch_1 @hv_param;
#X obj 426 345 s led1 @hv_param;
#X obj 426 270 * -1;
#X obj 426 306 + 1;
#X obj 426 134 loadbang;
#X obj 426 171 0;
#X text 513 97 The LED will light up when digital audio is active and
go dark when the relay bypasses the digital path.;
#X obj 191 524 s led3_red @hv_param;
#X obj 348 524 s led3_green @hv_param;
#X obj 518 523 s led3_blue @hv_param;
#X obj 191 436 r toggle_3 @hv_param;
#X obj 694 429 r toggle_2 @hv_param;
#X obj 694 523 s led2 @hv_param;
#X obj 694 477 != 0;
#X obj 191 481 == 1;
#X obj 348 480 == 2;
#X obj 518 480 == 0;
#X connect 0 0 16 0;
#X connect 0 0 3 0;
#X connect 3 0 7 0;
#X connect 4 0 6 0;
#X connect 4 0 8 1;
#X connect 5 0 3 1;
#X connect 6 0 5 0;
#X connect 7 0 1 0;
#X connect 8 0 7 1;
#X connect 9 0 12 0;
#X connect 10 0 11 0;
#X connect 11 0 18 0;
#X connect 12 0 8 0;
#X connect 12 0 14 0;
#X connect 14 0 13 0;
#X connect 15 0 14 1;
#X connect 16 0 2 0;
#X connect 17 0 16 1;
#X connect 18 0 19 0;
#X connect 18 1 19 1;
#X connect 19 0 9 0;
#X connect 20 0 21 0;
#X connect 20 0 24 0;
#X connect 22 0 20 0;
#X connect 24 0 25 0;
#X connect 25 0 23 0;
#X connect 26 0 27 0;
#X connect 27 0 20 0;
#X connect 32 0 36 0;
#X connect 32 0 37 0;
#X connect 32 0 38 0;
#X connect 33 0 35 0;
#X connect 35 0 34 0;
#X connect 36 0 29 0;
#X connect 37 0 30 0;
#X connect 38 0 31 0;
